<svg xmlns="http://www.w3.org/2000/svg" viewBox="0 0 64 64">
  <!-- Plate/circle background -->
  <circle cx="32" cy="32" r="30" fill="#fef3c7" stroke="#eab308" stroke-width="2.5"/>
  <!-- Pasta noodles (swirl) -->
  <path d="M22 28 Q26 18, 34 22 Q42 26, 36 34 Q30 42, 24 36 Q18 30, 26 24" fill="none" stroke="#eab308" stroke-width="3.5" stroke-linecap="round"/>
  <path d="M28 24 Q34 20, 38 28 Q42 36, 32 38 Q22 40, 22 32" fill="none" stroke="#d69e06" stroke-width="3" stroke-linecap="round"/>
  <!-- Marinara sauce dots -->
  <circle cx="30" cy="30" r="3" fill="#c53030" opacity="0.85"/>
  <circle cx="38" cy="26" r="2" fill="#c53030" opacity="0.7"/>
  <circle cx="24" cy="34" r="2.5" fill="#c53030" opacity="0.75"/>
  <!-- Fork -->
  <g transform="translate(40, 12) rotate(35)">
    <rect x="-1.2" y="0" width="2.4" height="22" rx="1.2" fill="#718096"/>
    <rect x="-1.2" y="-8" width="2.4" height="10" rx="0.6" fill="#a0aec0"/>
    <rect x="-5" y="-8" width="2" height="8" rx="1" fill="#a0aec0"/>
    <rect x="3" y="-8" width="2" height="8" rx="1" fill="#a0aec0"/>
  </g>
  <!-- Basil leaf -->
  <g transform="translate(16, 18) rotate(-20)">
    <path d="M0 0 Q4 -6, 10 -4 Q8 0, 0 0Z" fill="#2d8c4e"/>
    <path d="M0 0 Q5 -3, 10 -4" fill="none" stroke="#1a6b38" stroke-width="0.6"/>
  </g>
</svg>
